<?xml version="1.0" standalone="no"?><!DOCTYPE svg PUBLIC "-//W3C//DTD SVG 1.1//EN" "http://www.w3.org/Graphics/SVG/1.1/DTD/svg11.dtd"><svg t="1594651068255" class="icon" viewBox="0 0 1024 1024" version="1.1" xmlns="http://www.w3.org/2000/svg" p-id="2135" xmlns:xlink="http://www.w3.org/1999/xlink" width="200" height="200"><defs><style type="text/css"></style></defs><path d="M512 0C229.216 0 0 229.216 0 512c0 282.768 229.216 512 512 512 282.752 0 512-229.232 512-512C1024 229.216 794.752 0 512 0zM512 992C246.896 992 32 777.088 32 512 32 246.896 246.896 32 512 32c265.056 0 480 214.896 480 480C992 777.088 777.056 992 512 992z" p-id="2136" fill="#1296db"></path><path d="M703.264 752.384c2 11.632-2.544 23.904-12.736 31.296s-23.264 7.92-33.696 2.432l-137.36-72.24c-2.224-1.168-4.752-1.84-7.44-1.84s-5.216 0.672-7.44 1.84l-137.392 72.24c-10.432 5.488-23.52 4.976-33.696-2.432-10.176-7.392-14.72-19.664-12.72-31.296l26.24-152.992c0.416-2.48 0.288-5.088-0.56-7.664-0.832-2.56-2.24-4.752-4.048-6.512l-111.136-108.336c-8.448-8.224-11.984-20.832-8.096-32.8 3.888-11.968 14.16-20.08 25.824-21.776l153.616-22.32c2.496-0.352 4.928-1.312 7.104-2.896 2.176-1.584 3.824-3.616 4.944-5.872l68.688-139.184c5.216-10.576 16.112-17.84 28.688-17.84 12.592 0 23.488 7.264 28.704 17.84l68.688 139.184c1.104 2.256 2.768 4.288 4.944 5.872s4.624 2.528 7.104 2.896l153.584 22.32c11.664 1.696 21.936 9.808 25.824 21.776s0.352 24.576-8.096 32.8l-111.12 108.336c-1.792 1.76-3.216 3.952-4.048 6.512s-0.976 5.168-0.544 7.648L703.264 752.384zM504.576 677.728c2.224-1.168 4.752-1.84 7.44-1.84s5.216 0.672 7.44 1.84l123.568 64.976c5.216 2.752 11.744 2.48 16.848-1.2 5.088-3.696 7.36-9.84 6.368-15.664l-23.584-137.632c-0.416-2.464-0.288-5.072 0.544-7.648s2.256-4.752 4.048-6.512l99.968-97.472c4.224-4.112 5.984-10.416 4.048-16.4-1.952-5.984-7.072-10.032-12.928-10.896l-138.16-20.064c-2.48-0.352-4.944-1.312-7.104-2.896s-3.824-3.616-4.944-5.872l-61.792-125.2c-2.608-5.296-8.048-8.912-14.336-8.912s-11.744 3.632-14.352 8.912l-61.776 125.2c-1.12 2.256-2.768 4.288-4.944 5.872-2.176 1.584-4.624 2.528-7.104 2.896l-138.176 20.064c-5.824 0.848-10.976 4.912-12.912 10.896s-0.176 12.288 4.048 16.4l99.984 97.456c1.792 1.76 3.216 3.952 4.048 6.512 0.832 2.56 0.976 5.168 0.56 7.664l-23.6 137.616c-0.992 5.808 1.28 11.952 6.352 15.648 5.088 3.696 11.632 3.968 16.848 1.216L504.576 677.728z" p-id="2137" fill="#1296db"></path></svg>